<?xml version="1.0" standalone="no"?>
<!DOCTYPE svg PUBLIC "-//W3C//DTD SVG 20010904//EN"
 "http://www.w3.org/TR/2001/REC-SVG-20010904/DTD/svg10.dtd">
<svg version="1.0" xmlns="http://www.w3.org/2000/svg"
 width="2172.000000pt" height="2172.000000pt" viewBox="0 0 2172.000000 2172.000000"
 preserveAspectRatio="xMidYMid meet">
<metadata>
Created by potrace 1.14, written by Peter Selinger 2001-2017
</metadata>
<g transform="translate(0.000000,2172.000000) scale(0.100000,-0.100000)"
fill="#000000" stroke="none">
<path d="M13110 21713 c-245 -36 -690 -191 -1036 -358 -570 -277 -949 -621
-1117 -1016 -47 -109 -159 -554 -203 -808 -22 -121 -117 -551 -165 -741 -162
-649 -343 -1025 -622 -1290 -111 -105 -312 -258 -657 -500 -327 -230 -622
-448 -696 -515 -6 -5 -36 -30 -65 -54 -107 -88 -306 -298 -362 -383 -84 -126
-116 -206 -132 -338 -6 -54 -7 -275 -1 -310 2 -14 7 -54 11 -90 8 -88 23 -186
40 -270 3 -14 8 -41 11 -60 3 -19 19 -93 34 -165 16 -71 31 -141 34 -155 3
-14 18 -88 34 -165 16 -77 33 -162 36 -188 4 -27 9 -58 11 -69 6 -29 17 -146
19 -206 1 -28 -3 -93 -10 -144 -30 -241 13 -415 136 -539 95 -96 213 -142 365
-142 50 0 104 2 120 6 17 3 44 8 60 12 52 9 178 58 245 93 225 121 436 331
600 601 30 49 59 90 64 91 5 0 33 -20 62 -45 270 -231 390 -474 379 -770 -4
-95 -9 -150 -21 -205 -25 -123 -33 -297 -20 -410 11 -88 53 -234 90 -314 164
-356 478 -505 756 -360 64 33 218 163 364 304 99 97 166 171 285 315 9 11 44
61 77 110 152 224 228 426 232 616 2 97 -14 169 -82 367 -73 212 -130 421
-182 662 -19 89 -53 298 -60 365 -3 28 -7 60 -9 73 -27 162 -27 769 -1 908 2
10 7 42 10 69 15 114 71 350 116 486 104 318 275 602 517 859 33 35 33 35 34
10 0 -14 2 -34 4 -45 2 -11 7 -49 10 -85 3 -36 8 -76 10 -90 2 -14 7 -50 10
-80 4 -30 8 -62 10 -70 1 -8 6 -37 9 -63 4 -27 9 -58 12 -70 2 -12 6 -39 9
-62 3 -22 8 -47 11 -56 3 -10 6 -30 8 -45 9 -61 49 -246 92 -418 110 -442 233
-708 406 -878 155 -153 345 -194 568 -123 116 37 242 101 456 232 299 185 358
218 479 277 184 89 290 111 325 69 19 -23 19 -60 2 -104 -26 -66 -157 -162
-382 -281 -58 -31 -145 -77 -195 -103 -126 -66 -166 -90 -280 -166 -134 -90
-214 -169 -255 -253 -29 -59 -33 -77 -33 -144 1 -149 80 -271 208 -322 262
-103 338 -201 329 -425 -2 -49 -5 -97 -7 -105 -2 -8 -9 -42 -16 -75 -26 -120
-84 -215 -132 -215 -51 0 -132 62 -214 164 -127 160 -409 119 -590 -86 -87
-100 -134 -243 -129 -395 7 -197 75 -358 261 -610 190 -257 202 -343 63 -445
-19 -14 -56 -37 -81 -51 -82 -45 -93 -51 -166 -104 -40 -29 -130 -111 -200
-181 -175 -177 -215 -191 -395 -141 -274 75 -358 86 -490 66 -136 -20 -235
-87 -380 -254 -211 -245 -278 -293 -408 -290 -121 3 -172 36 -273 177 -78 110
-104 138 -150 161 -89 46 -170 28 -323 -74 -103 -67 -160 -97 -254 -129 -156
-53 -374 -39 -633 42 -92 29 -98 33 -84 48 17 19 113 186 139 242 50 108 72
160 103 241 32 82 81 234 90 276 2 10 13 56 24 103 11 47 22 108 26 135 3 28
8 66 10 85 3 19 5 76 6 125 2 197 -41 311 -160 417 -124 112 -251 142 -388 94
-189 -67 -394 -319 -506 -621 -21 -56 -57 -170 -62 -195 -50 -251 -26 -461 72
-630 69 -118 204 -239 361 -321 75 -40 76 -35 -62 -173 -200 -199 -371 -282
-621 -300 -236 -17 -427 -88 -583 -214 -182 -147 -284 -331 -342 -618 -64
-313 -162 -483 -325 -562 -37 -19 -141 -54 -229 -79 -330 -92 -480 -155 -676
-285 -219 -145 -480 -396 -705 -677 -197 -246 -263 -287 -460 -285 -115 1
-186 18 -435 98 -207 67 -255 82 -305 91 -22 5 -47 10 -55 11 -32 7 -167 7
-210 0 -25 -5 -77 -23 -117 -42 -127 -61 -231 -201 -299 -404 -41 -121 -41
-234 -1 -303 51 -87 114 -121 350 -192 171 -52 222 -71 322 -122 169 -86 291
-211 378 -388 67 -136 130 -349 153 -520 3 -27 8 -59 10 -70 6 -31 18 -242 18
-325 0 -85 -11 -270 -19 -315 -3 -16 -10 -57 -16 -90 -70 -423 -260 -697 -521
-751 -223 -47 -526 15 -1228 251 -515 173 -793 255 -950 280 -25 4 -54 9 -65
11 -101 19 -321 26 -400 12 -337 -58 -491 -300 -480 -754 4 -133 8 -179 49
-459 24 -158 29 -223 30 -330 0 -241 -41 -388 -178 -633 -71 -126 -241 -462
-286 -565 -51 -117 -132 -333 -145 -387 -2 -8 -13 -51 -25 -95 -11 -44 -23
-96 -26 -115 -3 -19 -9 -51 -13 -70 -14 -68 -13 -253 3 -328 51 -246 218 -385
500 -418 100 -12 285 -6 366 12 14 2 64 8 112 11 98 6 160 -6 200 -40 31 -27
64 -91 73 -142 4 -22 9 -49 11 -59 2 -11 8 -54 14 -97 34 -247 110 -363 281
-429 108 -42 176 -53 284 -48 116 6 217 40 372 125 332 183 385 208 518 241
92 24 155 30 350 37 183 6 252 12 353 31 298 54 553 243 800 591 206 291 331
576 407 933 33 155 51 226 69 276 79 217 217 312 641 439 66 20 124 41 129 46
6 5 17 9 25 9 26 0 227 105 299 156 145 103 269 250 335 395 22 49 63 167 72
209 13 63 35 172 40 205 12 79 16 98 35 153 23 63 41 87 79 100 38 13 134 7
206 -13 216 -61 347 -81 510 -78 286 6 525 100 930 365 401 262 549 258 842
-23 66 -63 166 -154 308 -280 17 -15 66 -58 111 -95 44 -38 98 -84 120 -103
21 -18 147 -120 279 -226 443 -355 930 -712 1425 -1048 388 -263 408 -277 496
-364 119 -118 198 -245 244 -388 29 -92 36 -246 14 -330 -36 -140 -129 -258
-244 -313 -65 -31 -78 -35 -180 -52 -30 -6 -66 -12 -80 -15 -14 -3 -38 -8 -55
-10 -16 -3 -73 -15 -125 -26 -328 -69 -495 -134 -586 -225 -161 -163 -58 -356
327 -612 320 -213 441 -266 604 -265 142 1 253 51 367 166 200 202 340 544
493 1207 2 8 13 53 23 100 103 450 126 544 169 697 l25 91 72 -45 c176 -114
348 -171 435 -145 89 27 133 101 125 212 -7 94 -45 182 -134 309 -120 169
-226 232 -337 198 -58 -18 -133 -100 -180 -197 -22 -47 -43 -91 -45 -99 -3
-10 -82 48 -236 172 -127 103 -244 198 -259 211 -16 13 -77 66 -138 117 -60
51 -112 95 -115 98 -3 4 -36 33 -75 66 -38 32 -77 66 -86 75 -9 8 -56 51 -105
95 -115 103 -509 496 -607 605 -273 305 -467 579 -591 835 -118 241 -156 389
-153 590 2 114 6 138 28 192 33 79 64 117 117 144 148 74 368 -62 592 -366 41
-55 99 -134 129 -175 30 -41 71 -93 90 -115 79 -91 302 -305 391 -376 107 -84
309 -228 375 -265 11 -6 74 -43 140 -81 125 -73 304 -165 683 -352 275 -136
367 -190 447 -264 70 -63 88 -103 101 -212 3 -33 8 -67 9 -75 1 -8 6 -35 9
-60 13 -80 47 -254 63 -310 83 -307 153 -483 264 -663 85 -137 205 -275 298
-345 20 -15 38 -30 41 -33 12 -15 130 -85 189 -112 108 -49 185 -70 331 -91
19 -3 96 -6 170 -6 189 -2 288 -29 491 -130 44 -23 121 -54 171 -71 239 -80
506 -14 591 145 17 32 22 58 22 121 0 70 -4 87 -30 134 -37 66 -115 145 -187
188 -30 18 -104 55 -165 82 -359 157 -565 316 -661 510 -34 69 -37 82 -37 160
0 72 4 95 26 142 62 132 203 221 384 244 241 30 551 155 874 354 268 164 463
314 656 506 171 170 205 256 199 495 -2 69 -5 134 -8 145 -2 12 -7 48 -11 80
-4 33 -9 69 -11 80 -2 11 -6 40 -10 65 -3 25 -9 70 -15 100 -25 150 -34 272
-33 455 1 149 4 182 27 271 41 160 80 235 197 379 99 123 148 223 186 380 28
111 25 350 -6 610 -15 134 -8 302 17 356 35 77 112 138 208 164 17 5 32 9 35
10 3 1 30 5 60 9 30 5 62 10 70 11 8 2 42 6 75 9 33 4 71 9 85 11 14 2 52 7
85 10 33 3 78 8 100 10 22 2 79 7 127 10 l87 7 -28 -69 c-59 -145 -111 -328
-127 -453 -10 -80 -11 -238 -2 -290 5 -25 11 -58 13 -73 3 -15 17 -56 31 -90
103 -257 347 -328 622 -182 274 146 615 535 677 774 22 86 14 187 -20 250 -62
114 -197 195 -390 236 -71 16 -95 19 -190 30 -27 3 -115 8 -194 10 -79 3 -146
7 -149 9 -6 6 95 159 167 253 132 173 313 363 486 508 461 388 756 854 844
1337 54 291 2 539 -143 684 -162 161 -389 193 -731 104 -332 -87 -501 -130
-534 -135 -18 -3 -36 -7 -40 -9 -4 -3 -49 -12 -101 -21 -52 -9 -106 -18 -120
-21 -66 -14 -259 -13 -305 0 -86 26 -108 62 -150 238 -45 194 -96 297 -192
394 -76 75 -158 105 -271 99 -111 -7 -156 -18 -352 -90 -80 -30 -170 -60 -200
-69 -168 -47 -248 -23 -303 89 -33 68 -44 114 -62 265 -2 19 -4 121 -5 225 -2
192 -14 307 -45 424 -61 234 -197 432 -405 591 -64 48 -271 180 -283 180 -9 0
-198 110 -242 140 -100 69 -121 106 -127 225 -10 169 -74 245 -298 352 -282
134 -322 159 -369 227 -56 81 -56 136 -5 351 28 115 24 236 -9 308 -27 57 -54
88 -140 160 -104 88 -137 180 -131 364 2 59 5 117 8 129 2 12 7 45 11 75 3 30
8 61 10 69 2 8 7 31 10 50 10 61 45 211 76 335 17 66 32 127 34 135 2 8 26
107 54 220 29 113 54 219 57 235 2 17 11 64 19 105 23 116 25 130 32 205 21
204 0 385 -56 489 -56 106 -194 214 -395 311 -58 28 -115 64 -138 87 -76 76
-122 222 -152 478 -2 19 -7 60 -11 90 -8 69 -55 211 -91 276 -30 54 -105 163
-144 208 -14 17 -41 48 -61 70 -20 23 -49 56 -65 74 -87 100 -181 239 -233
347 -50 101 -89 199 -97 240 -1 6 -9 37 -17 70 -9 33 -19 76 -22 95 -3 19 -8
42 -10 50 -2 8 -7 39 -10 69 -4 30 -8 62 -10 71 -23 117 -22 606 2 805 13 117
12 333 -2 395 -75 322 -292 542 -602 610 -75 16 -289 24 -363 13z m312 -143
c270 -49 469 -251 522 -530 13 -65 13 -200 1 -280 -19 -134 -27 -638 -12 -815
28 -340 120 -632 271 -867 47 -75 195 -258 291 -362 14 -15 65 -83 94 -126 58
-84 104 -218 116 -335 3 -33 8 -71 10 -85 3 -14 7 -47 10 -75 10 -88 54 -248
87 -315 48 -100 129 -173 263 -239 217 -107 306 -181 351 -289 24 -60 28 -81
30 -202 4 -199 -22 -342 -151 -860 -85 -338 -138 -585 -151 -695 -3 -33 -8
-69 -10 -80 -6 -33 -7 -240 -1 -261 3 -10 8 -37 12 -59 7 -54 57 -152 98 -195
18 -19 63 -61 99 -92 52 -45 68 -66 78 -102 17 -60 8 -154 -27 -276 -12 -44
-18 -98 -18 -166 1 -93 3 -105 33 -165 36 -72 57 -98 122 -150 43 -36 87 -59
340 -182 177 -86 210 -125 210 -246 0 -98 28 -168 93 -234 74 -75 94 -88 432
-277 156 -87 305 -211 385 -321 49 -67 107 -175 127 -234 55 -163 62 -224 67
-536 2 -119 6 -221 9 -225 3 -5 8 -31 11 -59 24 -186 125 -343 244 -376 81
-22 249 -7 337 31 62 26 314 112 368 125 131 31 200 16 272 -59 69 -72 107
-155 149 -325 20 -79 49 -166 64 -194 32 -60 97 -111 169 -133 96 -28 318 -21
493 16 25 5 56 12 70 14 86 14 315 71 565 140 179 49 175 48 315 52 169 5 251
-20 338 -105 214 -208 149 -723 -153 -1211 -135 -218 -315 -421 -545 -616
-268 -226 -513 -511 -679 -786 l-53 -88 -46 -1 c-26 -1 -60 -2 -77 -3 -120 -9
-218 -18 -233 -21 -9 -1 -48 -6 -87 -9 -38 -4 -101 -11 -140 -17 -38 -5 -88
-12 -110 -15 -196 -27 -345 -106 -410 -218 -65 -113 -75 -257 -40 -572 24
-217 21 -376 -10 -498 -19 -77 -95 -230 -136 -276 -160 -177 -244 -373 -266
-620 -12 -125 -5 -385 12 -465 3 -11 7 -45 10 -75 6 -60 10 -89 19 -135 3 -16
8 -50 11 -75 3 -25 7 -56 10 -70 14 -70 20 -158 20 -280 0 -181 -12 -208 -167
-364 -130 -131 -221 -206 -402 -335 -300 -213 -625 -380 -866 -445 -97 -26
-114 -29 -210 -41 -120 -16 -235 -68 -329 -151 -198 -175 -222 -440 -61 -678
112 -165 347 -339 618 -456 255 -110 346 -183 366 -293 5 -31 -26 -96 -58
-119 -45 -33 -137 -56 -218 -56 -99 0 -178 23 -322 95 -118 58 -282 117 -356
128 -84 13 -95 14 -235 16 -286 4 -486 88 -685 288 -126 128 -246 316 -315
496 -15 39 -31 79 -36 90 -30 71 -109 375 -124 481 -3 22 -8 50 -11 64 -2 14
-6 34 -8 46 -2 12 -7 45 -11 75 -20 174 -41 225 -125 309 -104 104 -216 168
-730 418 -341 167 -555 288 -765 436 -261 182 -506 417 -664 636 -202 279
-302 389 -434 477 -114 76 -174 97 -282 98 -80 0 -96 -3 -149 -30 -211 -107
-280 -422 -176 -803 90 -327 350 -746 711 -1146 25 -28 61 -69 80 -90 40 -47
367 -375 459 -462 54 -50 233 -210 390 -348 33 -29 125 -106 179 -151 14 -11
41 -34 60 -51 35 -30 368 -298 445 -359 89 -69 84 -44 43 -196 -57 -212 -190
-763 -213 -884 -15 -80 -94 -365 -135 -489 -154 -461 -339 -692 -562 -702 -98
-4 -193 26 -312 101 -22 13 -53 32 -70 41 -132 73 -339 226 -412 303 -81 85
-101 143 -65 187 70 87 377 182 820 254 237 39 411 190 488 425 24 70 27 96
26 205 0 151 -21 241 -87 377 -100 206 -240 348 -543 551 -642 431 -1369 965
-1744 1280 -13 11 -97 82 -188 158 -91 76 -170 143 -176 149 -6 5 -44 39 -84
75 -40 36 -87 78 -103 93 -253 236 -263 244 -330 285 -78 47 -162 74 -252 79
-162 11 -293 -40 -580 -226 -279 -179 -413 -247 -583 -291 -111 -29 -161 -35
-307 -33 -132 1 -222 16 -425 73 -158 45 -291 26 -368 -50 -48 -48 -92 -159
-109 -275 -23 -160 -73 -346 -115 -430 -61 -119 -180 -252 -292 -326 -87 -57
-245 -131 -356 -167 -52 -16 -133 -42 -180 -57 -88 -28 -111 -37 -219 -87
-159 -72 -279 -183 -341 -312 -41 -86 -59 -148 -115 -400 -68 -302 -145 -494
-295 -732 -130 -207 -303 -409 -430 -501 -120 -87 -273 -152 -397 -169 -26 -3
-57 -8 -68 -10 -11 -2 -87 -6 -170 -9 -283 -9 -372 -20 -510 -62 -94 -29 -260
-105 -367 -170 -206 -125 -334 -174 -458 -174 -175 -1 -314 74 -359 193 -10
26 -34 152 -46 233 -44 324 -186 428 -520 380 -137 -19 -174 -22 -278 -19
-283 6 -435 112 -472 329 -11 67 -12 181 -1 248 33 204 99 413 208 662 50 113
199 411 233 465 14 22 25 42 25 45 0 3 22 45 49 93 73 129 114 240 146 392 16
80 22 276 10 385 -14 141 -16 157 -47 355 -30 196 -32 470 -4 580 61 243 206
344 485 339 114 -2 233 -17 346 -44 39 -9 77 -18 85 -20 122 -26 281 -75 735
-226 476 -159 719 -230 865 -254 19 -3 42 -8 50 -10 89 -24 359 -25 450 -1
326 86 538 404 616 926 25 164 25 608 0 735 -2 11 -7 43 -10 70 -10 71 -41
207 -70 300 -128 423 -357 653 -778 781 -293 90 -321 101 -360 155 -27 36 -25
97 6 194 56 172 130 276 234 327 61 30 74 33 152 31 119 -2 136 -5 405 -93
296 -96 371 -112 521 -112 162 0 285 51 398 166 39 39 123 136 187 216 64 80
175 204 246 275 319 322 566 469 985 584 79 22 167 47 194 56 199 67 324 188
410 400 32 77 85 264 100 349 34 200 142 384 293 501 145 111 292 159 546 180
93 7 117 12 200 36 93 28 213 91 305 160 77 59 220 200 279 277 23 29 39 42
50 38 254 -83 413 -116 568 -116 210 0 346 46 566 191 49 32 105 61 124 65 42
8 68 -14 148 -126 89 -124 140 -169 235 -210 44 -18 74 -23 145 -24 185 -1
292 67 499 319 80 97 156 163 226 198 62 31 70 32 180 31 103 0 129 -4 243
-38 195 -57 248 -66 322 -53 106 17 185 72 331 226 107 113 173 163 309 237
121 66 207 150 229 224 43 143 6 239 -201 526 -73 101 -76 106 -117 184 -70
135 -99 290 -75 414 27 144 147 274 287 311 27 7 60 11 73 10 13 -1 32 -3 43
-4 10 0 62 -45 115 -100 117 -120 177 -155 266 -155 90 1 145 37 200 129 84
142 122 431 79 587 -46 162 -137 254 -343 343 -132 57 -167 96 -178 195 -10
90 39 164 172 264 117 87 197 134 495 289 339 176 466 288 488 429 17 111 -39
214 -130 239 -120 32 -313 -31 -593 -194 -38 -22 -157 -94 -263 -159 -105 -65
-196 -118 -201 -118 -5 0 -11 -4 -13 -9 -4 -11 -178 -93 -248 -117 -40 -14
-83 -19 -160 -19 -100 0 -108 2 -167 33 -197 108 -351 397 -477 900 -24 97
-46 191 -49 207 -3 17 -12 64 -21 105 -8 41 -27 145 -41 230 -34 200 -32 189
-45 305 -6 55 -13 111 -15 125 -7 46 -18 175 -17 194 1 25 20 44 157 159 66
55 131 109 145 121 14 12 48 38 75 59 65 50 214 194 278 271 144 174 221 354
216 509 -7 220 -153 367 -403 408 -225 36 -366 -41 -471 -256 -39 -80 -83
-214 -99 -300 -18 -96 -29 -182 -41 -325 -6 -65 -6 -511 -1 -538 4 -19 -14
-43 -89 -120 -383 -396 -596 -829 -689 -1402 -2 -14 -7 -45 -11 -69 -8 -48 -9
-61 -22 -206 -14 -176 -7 -654 11 -752 2 -10 7 -47 11 -83 4 -36 9 -72 10 -82
2 -9 6 -38 10 -65 3 -26 13 -82 20 -123 8 -41 17 -90 20 -109 3 -19 7 -37 9
-40 2 -3 7 -22 10 -41 18 -115 96 -394 182 -649 63 -187 65 -198 63 -285 -5
-229 -130 -482 -378 -766 -159 -182 -418 -416 -516 -468 -43 -23 -62 -27 -140
-27 -79 0 -97 4 -147 28 -219 108 -363 406 -352 732 2 61 6 121 8 135 3 14 8
38 12 53 3 16 7 38 9 50 2 12 6 47 11 77 9 69 10 207 1 282 -32 270 -179 517
-429 722 l-84 69 34 100 c56 164 54 288 -6 355 -64 73 -175 71 -325 -4 -95
-47 -132 -78 -157 -130 -16 -32 -20 -53 -15 -76 17 -76 52 -116 197 -220 l97
-69 -45 -76 c-215 -365 -507 -607 -802 -668 -315 -65 -525 118 -496 435 11
125 13 350 3 411 -5 30 -12 74 -15 99 -8 60 -48 262 -74 380 -12 52 -24 106
-26 120 -2 14 -7 36 -10 50 -3 14 -8 34 -10 45 -2 11 -11 54 -19 95 -23 113
-24 117 -40 225 -31 210 -38 351 -23 480 24 212 152 381 534 705 42 36 378
286 462 345 888 616 1046 766 1252 1190 87 178 154 360 223 600 45 155 142
551 161 655 2 14 19 95 36 180 18 85 34 164 36 175 36 187 124 556 156 655 37
116 104 240 207 380 27 37 216 229 266 270 184 152 441 307 702 424 183 83
178 80 293 124 443 167 678 212 902 172z m-387 -3016 c183 -46 266 -174 229
-353 -38 -182 -201 -393 -474 -611 -76 -61 -184 -150 -218 -181 -18 -16 -36
-29 -41 -29 -9 0 -7 374 3 470 28 266 58 395 121 525 91 188 179 229 380 179z
m-3182 -4053 c17 -17 8 -107 -19 -191 -14 -44 -27 -80 -30 -80 -10 0 -151 106
-182 137 -39 39 -35 50 32 86 105 56 174 73 199 48z m-159 -1676 c59 -32 132
-107 158 -163 78 -173 4 -627 -162 -998 -66 -147 -183 -362 -204 -376 -13 -9
-135 56 -213 113 -180 134 -256 289 -255 524 0 100 10 156 47 285 42 146 134
324 232 447 137 172 278 231 397 168z m10006 -4849 c14 -3 43 -8 65 -11 69 -8
188 -42 246 -70 166 -78 192 -189 88 -385 -72 -137 -285 -376 -432 -486 -125
-93 -250 -144 -337 -137 -64 5 -99 20 -147 66 -78 75 -114 200 -109 377 5 180
53 369 147 583 l34 79 210 -5 c116 -3 221 -8 235 -11z m-5943 -5221 c119 -106
223 -315 198 -395 -16 -52 -170 -2 -357 117 -49 30 -88 56 -88 56 0 8 45 118
61 149 30 58 88 118 114 118 13 0 44 -19 72 -45z"/>
<path d="M1523 20181 c-92 -31 -174 -115 -230 -237 -23 -50 -28 -72 -28 -149
0 -76 4 -98 25 -140 37 -73 122 -154 213 -201 l77 -40 -51 -64 c-28 -36 -71
-85 -95 -110 -230 -241 -265 -661 -77 -925 58 -80 102 -123 188 -180 117 -78
252 -125 408 -142 94 -10 351 -10 447 0 498 51 936 262 1163 560 136 177 138
319 9 501 -149 210 -178 263 -217 401 -55 194 -197 266 -454 229 -99 -14 -248
-50 -491 -119 -52 -15 -102 -28 -110 -30 -8 -2 -46 -10 -85 -19 -38 -8 -90
-18 -115 -21 -52 -6 -226 -7 -255 -1 -11 3 -28 5 -38 5 -16 1 -16 3 -1 32 40
78 73 239 68 327 -6 87 -10 105 -39 171 -60 133 -187 194 -312 152z m133 -141
c71 -45 101 -179 70 -314 -17 -73 -63 -186 -76 -186 -17 0 -99 41 -139 71 -82
59 -121 125 -115 198 3 43 56 150 91 186 66 66 113 79 169 45z m1484 -506 c48
-28 69 -62 92 -145 27 -104 85 -217 174 -339 132 -182 148 -242 95 -344 -57
-107 -211 -252 -363 -342 -174 -101 -442 -193 -638 -219 -25 -3 -56 -8 -70
-10 -122 -21 -351 -21 -489 -1 -179 27 -287 75 -395 176 -144 136 -204 335
-162 537 29 134 75 216 199 353 33 36 77 90 99 121 l39 55 77 -12 c77 -12 293
-11 367 1 22 4 92 20 155 36 149 38 123 31 295 78 153 42 163 45 275 66 95 18
209 13 250 -11z"/>
<path d="M4913 14108 c-85 -14 -148 -58 -197 -135 -25 -42 -70 -160 -80 -216
-37 -199 -43 -277 -71 -857 -5 -118 -12 -218 -20 -302 -11 -106 -16 -154 -20
-178 -2 -14 -7 -49 -10 -79 -4 -30 -8 -62 -10 -72 -2 -9 -7 -39 -11 -66 -3
-26 -9 -57 -11 -68 -3 -11 -6 -81 -8 -155 -8 -264 36 -349 246 -473 110 -64
163 -118 207 -210 76 -158 95 -301 49 -379 -30 -51 -91 -95 -234 -166 -394
-198 -591 -466 -579 -787 5 -109 22 -178 68 -269 16 -32 28 -59 26 -60 -205
-145 -443 -365 -558 -517 -66 -88 -125 -200 -136 -256 -15 -79 31 -159 104
-181 69 -21 210 -9 392 33 42 10 273 83 500 159 405 136 568 149 1340 110 69
-4 153 -6 188 -6 243 2 342 73 357 258 14 162 26 220 62 286 28 52 92 120 171
183 100 80 147 186 123 281 -25 97 -48 125 -350 419 -196 191 -237 302 -256
700 -14 294 -38 429 -100 576 -63 151 -137 240 -324 393 -227 185 -320 306
-307 397 9 67 51 126 179 253 155 153 180 203 184 351 3 149 -29 268 -118 434
-118 220 -309 425 -489 524 -112 61 -227 89 -307 75z m137 -149 c19 -6 64 -27
100 -46 276 -149 542 -547 542 -812 0 -118 -13 -142 -144 -276 -155 -158 -195
-216 -216 -310 -36 -162 52 -299 343 -539 180 -149 229 -205 290 -339 55 -121
79 -250 89 -477 6 -118 12 -200 21 -296 14 -139 65 -290 130 -388 36 -55 141
-165 314 -330 140 -133 172 -196 136 -265 -8 -16 -51 -59 -95 -96 -166 -137
-232 -267 -245 -483 -8 -116 -23 -149 -80 -169 -49 -17 -183 -20 -440 -8 -328
16 -751 11 -865 -9 -14 -3 -43 -7 -65 -11 -22 -3 -58 -10 -80 -16 -22 -6 -47
-13 -55 -14 -8 -2 -150 -49 -315 -104 -390 -130 -527 -164 -649 -163 -62 0
-71 10 -56 59 40 123 279 389 515 570 l119 92 31 -25 c173 -142 388 -205 516
-151 167 70 229 329 116 479 -42 56 -111 91 -177 89 -76 -1 -241 -71 -388
-163 -60 -39 -64 -40 -77 -22 -8 11 -26 55 -41 99 -63 197 -10 393 155 568 70
74 162 138 326 225 171 91 239 141 282 204 54 80 66 191 36 323 -54 233 -145
362 -333 472 -112 66 -145 99 -166 168 -16 54 -18 247 -4 327 5 23 11 68 15
98 3 30 8 62 10 70 5 15 9 46 19 135 3 28 8 73 11 101 8 70 14 142 20 249 2
50 7 131 10 180 3 50 7 135 10 190 10 216 21 371 31 430 2 16 6 44 8 60 18
131 64 261 108 302 43 41 102 48 188 22z m-172 -4188 c52 -28 65 -150 25 -227
-40 -77 -129 -92 -255 -44 -58 21 -178 95 -178 109 0 8 145 92 225 130 99 47
141 55 183 32z"/>
<path d="M3569 12217 c-73 -19 -123 -71 -210 -217 -124 -210 -168 -242 -359
-264 -80 -10 -104 -16 -167 -47 -180 -87 -223 -268 -119 -495 57 -121 62 -184
22 -268 -33 -72 -81 -123 -226 -241 -69 -57 -143 -122 -164 -145 -196 -217
-53 -508 283 -576 151 -30 299 -4 478 84 95 47 244 96 328 107 187 27 278 57
362 119 107 78 217 217 251 314 22 60 28 182 13 239 -24 90 -34 169 -26 200 3
14 32 53 64 87 149 158 214 278 225 418 7 101 -33 233 -100 325 -103 142 -355
318 -512 358 -61 16 -87 16 -143 2z m220 -182 c303 -160 445 -373 382 -571
-21 -68 -86 -163 -167 -249 -111 -116 -128 -187 -89 -365 35 -156 25 -205 -60
-325 -101 -141 -212 -203 -410 -230 -138 -18 -284 -64 -412 -129 -111 -56
-187 -76 -293 -76 -157 0 -310 88 -340 195 -11 39 -10 51 4 90 22 57 59 97
171 185 227 180 310 291 322 435 7 82 -8 147 -58 259 -49 109 -57 171 -27 234
33 69 106 104 243 117 184 17 281 90 412 309 37 61 82 126 100 145 32 32 37
33 84 28 31 -4 83 -23 138 -52z"/>
<path d="M9302 3973 c-56 -19 -151 -111 -184 -178 -84 -166 -119 -437 -74
-572 41 -123 158 -196 301 -187 183 12 298 218 291 522 -4 156 -27 247 -85
335 -50 78 -156 112 -249 80z m116 -139 c97 -67 113 -423 26 -572 -53 -89
-107 -112 -190 -77 -44 18 -61 35 -80 81 -16 38 -18 157 -3 224 4 19 10 53 13
76 12 96 74 213 136 259 39 29 66 31 98 9z"/>
<path d="M9305 2784 c-63 -15 -156 -53 -275 -112 -200 -99 -259 -167 -245
-282 6 -49 24 -86 99 -199 30 -46 58 -97 61 -113 4 -16 -1 -63 -10 -105 -32
-142 -23 -293 24 -397 63 -141 237 -230 431 -221 171 7 295 100 352 264 36
103 46 188 42 346 -2 82 -5 161 -8 175 -3 14 -7 45 -10 70 -3 25 -8 56 -11 70
-2 13 -7 42 -10 63 -11 72 -56 211 -87 269 -62 117 -140 170 -258 174 -41 2
-84 1 -95 -2z m157 -150 c58 -30 117 -152 143 -294 2 -14 9 -50 15 -80 19
-101 25 -184 24 -345 -1 -134 -4 -170 -22 -223 -27 -84 -65 -137 -121 -170
-41 -24 -56 -27 -136 -27 -220 0 -321 107 -311 330 2 44 11 110 20 146 8 36
14 74 12 85 -2 10 -7 37 -11 59 -7 41 -37 98 -91 175 -100 143 -92 161 120
265 210 102 282 118 358 79z"/>
<path d="M15417 1814 c-1 -2 -15 -5 -31 -8 -36 -7 -104 -42 -134 -69 -36 -33
-70 -97 -77 -143 -12 -88 32 -187 128 -286 55 -56 78 -100 112 -206 45 -144
96 -187 232 -196 77 -5 90 -10 206 -65 45 -22 96 -42 112 -44 72 -10 171 46
197 112 14 35 11 118 -7 194 -18 81 -15 103 30 191 104 205 4 320 -407 462
-93 32 -112 37 -188 50 -37 7 -168 12 -173 8z m241 -164 c164 -46 342 -128
399 -183 38 -35 38 -55 0 -120 -52 -89 -62 -157 -40 -257 25 -115 25 -128 -3
-147 -25 -16 -29 -15 -122 30 -108 52 -149 64 -236 70 -73 5 -87 20 -117 120
-30 103 -58 152 -133 237 -96 109 -115 158 -79 210 34 51 87 69 183 65 41 -2
108 -13 148 -25z"/>
<path d="M20570 1260 c-30 -11 -117 -52 -193 -91 -133 -68 -224 -106 -277
-115 -14 -2 -36 -7 -50 -10 -13 -3 -61 -5 -105 -4 -44 1 -95 2 -113 2 -88 1
-179 -71 -230 -180 -20 -44 -27 -72 -26 -122 0 -75 17 -114 74 -170 60 -58
135 -83 255 -84 173 -1 251 30 536 215 193 124 274 184 332 243 92 96 107 197
40 277 -52 61 -141 75 -243 39z m134 -126 c9 -8 16 -22 16 -31 0 -32 -122
-134 -295 -247 -99 -65 -191 -126 -205 -135 -45 -31 -134 -70 -195 -86 -120
-32 -226 -16 -283 41 -31 31 -34 39 -30 77 6 48 56 128 90 143 13 6 68 9 122
8 178 -5 299 28 506 138 97 52 227 107 252 108 4 0 14 -7 22 -16z"/>
<path d="M17740 573 c-47 -13 -107 -31 -135 -40 -179 -55 -185 -56 -355 -56
-141 0 -182 3 -280 25 -193 43 -281 26 -378 -71 -92 -92 -123 -191 -83 -268
33 -66 73 -88 156 -87 60 0 78 5 123 32 83 50 129 43 320 -49 161 -77 221 -76
374 12 48 28 95 52 105 54 10 3 79 18 153 34 171 38 217 54 264 93 54 44 75
96 71 173 -2 34 -8 73 -15 86 -47 90 -151 110 -320 62z m181 -113 c14 -8 19
-21 19 -50 0 -60 -24 -71 -275 -126 -120 -26 -149 -37 -278 -107 -38 -20 -82
-37 -99 -37 -16 0 -76 22 -131 49 -215 102 -320 113 -428 45 -49 -31 -99 -33
-99 -4 0 47 67 128 123 149 42 16 80 13 212 -16 99 -21 147 -26 270 -27 167
-1 244 12 428 71 60 19 137 41 170 48 34 7 63 14 65 14 2 1 12 -4 23 -9z"/>
</g>
</svg>
